<?xml version="1.0" standalone="no"?>
<!DOCTYPE svg PUBLIC "-//W3C//DTD SVG 1.1//EN" "http://www.w3.org/Graphics/SVG/1.1/DTD/svg11.dtd" >
<!--
2013-9-30: Created.
-->
<svg>
<metadata>
Created by iconfont
</metadata>
<defs>

<font id="iconfont" horiz-adv-x="1024" >
  <font-face
    font-family="iconfont"
    font-weight="500"
    font-stretch="normal"
    units-per-em="1024"
    ascent="896"
    descent="-128"
  />
    <missing-glyph />
    
    <glyph glyph-name="xinxi" unicode="&#58915;" d="M149.208277 0.320551l21.282722 170.267918c-60.423161 64.795748-93.597725 145.611356-93.597725 228.475622 0 203.257264 195.184401 368.615359 435.106726 368.615359s435.106726-165.358095 435.106726-368.615359-195.184401-368.615359-435.106726-368.615359c-70.603011 0-140.484591 14.635325-202.669886 42.388413L149.208277 0.320551zM512 733.305571c-220.964554 0-400.732847-149.941987-400.732847-334.24148 0-76.444043 31.822776-151.20884 89.602737-210.524784l5.765307-5.924943-15.70161-125.664048 111.287619 50.402947 6.184863-13.662161 8.030907 13.687744c59.491952-27.836999 127.115096-42.556235 195.562001-42.556235 220.964554 0 400.732847 149.941987 400.732847 334.24148S732.964554 733.305571 512 733.305571zM394.660548 379.054361c0-14.693654-11.912307-26.605961-26.605961-26.605961s-26.605961 11.912307-26.605961 26.605961 11.912307 26.605961 26.605961 26.605961S394.660548 393.748015 394.660548 379.054361zM535.876804 379.054361c0-14.693654-11.912307-26.605961-26.605961-26.605961-14.693654 0-26.605961 11.912307-26.605961 26.605961s11.912307 26.605961 26.605961 26.605961C523.964496 405.660322 535.876804 393.748015 535.876804 379.054361zM677.093059 379.054361c0-14.693654-11.912307-26.605961-26.605961-26.605961-14.693654 0-26.605961 11.912307-26.605961 26.605961s11.912307 26.605961 26.605961 26.605961C665.180751 405.660322 677.093059 393.748015 677.093059 379.054361z"  horiz-adv-x="1024" />

    
    <glyph glyph-name="remen" unicode="&#58891;" d="M114.688 865.28v-993.28l397.312 167.936 397.312-167.936V865.28h-794.624z m208.384-653.824c-11.776 8.192-24.576 13.824-37.888 17.92 15.872 22.528 33.792 55.808 53.76 99.84 11.776-8.192 24.576-14.848 37.888-19.968-9.216-11.776-27.136-44.032-53.76-97.792z m86.016 198.144c0-28.16-4.608-44.544-13.824-50.176-9.216-5.12-28.16-10.752-55.808-15.872-4.096 14.848-10.24 28.672-17.92 41.984 28.16-1.536 44.032-0.512 48.128 2.048 4.096 2.56 6.144 9.216 6.144 19.968v53.76c-21.504-5.12-44.544-11.776-70.144-19.968-2.56 11.776-7.168 25.088-13.824 39.936 19.968 1.536 48.128 6.144 83.968 13.824v66.048c-26.624 0-51.2-0.512-74.24-2.048V593.92c21.504-1.536 46.08-2.048 74.24-2.048 0 35.84-0.512 64.512-2.048 86.016h37.888c-1.536-17.408-2.048-46.08-2.048-86.016 15.872 0 35.328 0.512 57.856 2.048v-33.792c-22.528 1.536-41.984 2.048-57.856 2.048v-57.856c18.432 4.096 37.888 8.704 57.856 13.824v-31.744c-19.968-5.12-39.424-10.752-57.856-15.872l-0.512-60.928z m44.032-192c-5.12 22.528-15.872 51.2-31.744 86.016 11.776 4.096 23.552 8.704 33.792 13.824 18.432-41.472 30.208-70.656 33.792-88.064-13.312-3.584-25.088-7.68-35.84-11.776z m117.76 4.096c-10.752 31.744-22.528 61.952-35.84 90.112 13.312 4.096 24.576 8.704 33.792 13.824 15.872-33.28 29.184-63.488 39.936-90.112-14.336-4.096-27.136-8.704-37.888-13.824z m132.096-2.048c-9.216 22.528-28.16 57.856-55.808 105.984 10.752 4.096 21.504 9.216 31.744 15.872 29.184-48.128 49.152-82.432 59.904-103.936l-35.84-17.92z m23.04 144.896c-7.168-8.704-15.872-12.8-25.088-12.8-9.216 0-20.48 5.12-33.792 14.848-13.312 10.24-23.552 31.744-30.208 65.024-6.656 33.28-8.704 78.848-6.144 136.192l-46.08-2.048c-1.536-31.744-6.144-63.488-13.824-94.208 28.16-21.504 48.64-37.376 61.952-48.128-8.192-11.776-15.36-23.552-22.016-33.792-22.528 24.064-39.936 39.424-52.224 46.08-15.872-35.84-41.472-70.656-75.776-103.936-8.192 11.776-19.456 20.48-33.792 26.112 37.376 28.16 64 60.416 79.872 97.792-9.216 9.216-25.6 20.48-48.128 33.792 8.192 10.752 14.848 20.48 19.968 30.208 15.872-9.216 29.184-17.92 39.936-26.112 5.12 17.408 8.192 41.472 8.192 72.192-15.872 0-35.328-1.536-57.856-4.096l-2.048 31.744c21.504 1.536 41.472 2.048 59.904 2.048 0 31.744-0.512 59.392-2.048 81.92 9.216-4.096 24.064-6.656 44.032-8.192-4.096-19.968-6.144-44.544-6.144-74.24l88.064 4.096c-4.096-21.504-6.656-51.2-8.192-89.088s2.048-67.584 10.24-89.088c8.192-21.504 15.872-31.232 23.04-30.208 7.168 1.536 12.8 18.432 16.896 52.224 11.776-8.192 24.576-13.312 37.888-15.872-10.24-32.768-19.456-53.76-26.624-62.464zM420.864 303.616c15.872-34.816 26.624-63.488 31.744-86.016 10.752 4.096 22.528 8.192 35.84 11.776-4.096 17.408-15.36 46.592-33.792 88.064-10.24-5.12-21.504-9.728-33.792-13.824zM466.944 517.632c-19.968-5.12-39.424-10.24-57.856-13.824v57.856c15.872 0 35.328-0.512 57.856-2.048V593.92c-22.528-1.536-41.984-2.048-57.856-2.048 0 39.936 0.512 68.608 2.048 86.016h-37.888c1.536-21.504 2.048-50.176 2.048-86.016-28.16 0-52.736 0.512-74.24 2.048v-33.792c22.528 1.536 47.104 2.048 74.24 2.048v-66.048c-35.84-8.192-64-12.8-83.968-13.824 6.656-14.848 11.264-28.16 13.824-39.936 25.088 8.192 48.64 14.848 70.144 19.968v-53.76c0-10.752-2.048-17.408-6.144-19.968s-19.968-3.584-48.128-2.048c8.192-13.312 13.824-27.136 17.92-41.984 28.16 5.12 46.592 10.752 55.808 15.872 9.216 5.12 13.824 22.016 13.824 50.176v59.904c18.432 5.12 37.888 10.752 57.856 15.872l0.512 31.232zM285.184 229.888c13.312-4.096 26.112-10.24 37.888-17.92 26.624 53.248 44.544 86.016 53.76 97.792-13.312 5.12-26.112 11.776-37.888 19.968-19.968-44.032-37.888-77.312-53.76-99.84zM647.168 325.632c28.16-48.128 46.592-83.456 55.808-105.984l35.84 17.92c-10.752 21.504-30.72 55.808-59.904 103.936-10.24-6.656-20.992-11.776-31.744-15.872zM535.04 311.808c13.312-28.16 25.088-57.856 35.84-90.112 10.752 5.12 23.552 10.24 37.888 13.824-10.752 26.624-24.064 56.832-39.936 90.112-9.216-5.12-20.48-9.728-33.792-13.824zM698.368 391.68c-7.168-1.536-14.848 8.704-23.04 30.208s-11.264 51.2-10.24 89.088c1.536 37.888 4.096 67.584 8.192 89.088l-88.064-4.096c0 29.184 2.048 53.76 6.144 74.24-19.968 1.536-34.816 4.096-44.032 8.192 1.536-22.528 2.048-50.176 2.048-81.92-18.432 0-38.912-0.512-59.904-2.048l2.048-31.744c22.528 2.56 41.984 4.096 57.856 4.096 0-30.72-2.56-54.784-8.192-72.192-10.752 8.192-24.064 16.896-39.936 26.112-5.12-9.216-11.776-19.456-19.968-30.208 22.528-13.312 38.4-24.576 48.128-33.792-15.872-37.376-42.496-70.144-79.872-97.792 14.848-5.12 26.112-13.824 33.792-26.112 34.816 33.28 59.904 68.096 75.776 103.936 11.776-6.656 29.184-22.016 52.224-46.08 6.656 10.752 13.824 22.016 22.016 33.792-13.312 10.752-33.792 26.624-61.952 48.128 8.192 30.72 12.8 61.952 13.824 94.208l46.08 2.048c-2.56-57.344-0.512-102.912 6.144-136.192s16.896-54.784 30.208-65.024c13.312-10.24 24.576-14.848 33.792-14.848s17.408 4.096 25.088 12.8c7.168 8.704 16.384 29.696 27.136 62.976-13.312 2.56-26.112 8.192-37.888 15.872-4.608-34.304-10.24-51.2-17.408-52.736z"  horiz-adv-x="1024" />

    
    <glyph glyph-name="remen1" unicode="&#58892;" d="M627.677867 692.8384c-12.322133 38.126933-33.416533 73.5232-60.689067 105.984a421.12 421.12 0 0 1-48.725333 49.066667 295.594667 295.594667 0 0 1-22.920534 18.0224c-18.909867 12.970667-44.049067-3.549867-39.594666-26.0608 0.034133-0.221867 0.187733-1.297067 0.392533-3.140267 1.3824-13.0048 0.682667-29.696-3.771733-48.605867-6.5536-27.767467-20.189867-55.176533-42.734934-81.134933-6.263467-7.2192-13.192533-14.267733-20.804266-21.128533-7.953067-7.202133-16.9472-14.660267-27.733334-23.108267-9.659733-7.5776-54.2208-40.994133-66.3552-50.517333-112.5376-88.183467-166.741333-175.377067-166.741333-319.488C128 74.478933 304.896-102.4 523.1104-102.4s395.1104 176.896 395.1104 395.1104c0 93.3376-39.850667 190.071467-105.8816 285.405867a930.628267 930.628267 0 0 1-71.645867 90.658133 800.426667 800.426667 0 0 1-23.722666 25.3952 404.104533 404.104533 0 0 1-9.352534 9.335467c-16.469333 15.6672-43.656533 3.720533-43.264-18.9952 0-0.768-0.034133-2.4576-0.187733-4.846934a133.905067 133.905067 0 0 0-1.536-13.038933 130.986667 130.986667 0 0 0-12.305067-38.126933c-3.413333-6.656-7.338667-12.7488-11.895466-18.261334 1.826133 25.873067-1.194667 53.0432-10.752 82.602667z m-99.8912 73.045333c23.313067-27.733333 41.079467-57.5488 51.2-88.797866 11.008-34.0992 10.786133-63.317333 3.7888-91.716267-1.143467-4.693333-4.778667-17.3056-4.676267-16.878933-1.245867-4.693333-1.809067-7.662933-1.570133-12.066134a26.333867 26.333867 0 0 1 34.901333-23.808c39.355733 13.141333 67.157333 38.7584 84.48 72.533334 4.181333 8.209067 7.645867 16.64 10.427733 25.1904a878.5408 878.5408 0 0 0 63.914667-81.373867c60.637867-87.552 96.768-175.274667 96.768-256.256 0-189.934933-153.975467-343.9104-343.893333-343.9104-189.952 0-343.927467 153.975467-343.927467 343.9104 0 126.088533 45.858133 199.850667 147.114667 279.210667 11.5712 9.0624 56.132267 42.496 66.372266 50.517333a568.610133 568.610133 0 0 1 30.446934 25.378133 295.2704 295.2704 0 0 1 25.156266 25.582934c33.672533 38.7584 51.131733 79.0016 57.258667 116.650666 7.594667-7.543467 15.0528-15.598933 22.237867-24.149333zM290.133333 415.7952c0 9.3696 7.662933 16.9472 16.9984 16.9472h7.7824c9.386667 0 16.9984-7.6288 16.9984-17.1008v-107.8272h51.6096v107.8272c0 9.437867 7.662933 17.1008 16.9984 17.1008h7.7824c9.386667 0 16.9984-7.799467 16.9984-16.9472v-257.7408a16.9984 16.9984 0 0 0-16.9984-16.9472h-7.7824a17.066667 17.066667 0 0 0-16.9984 16.981333v112.861867h-51.6096v-112.861867c0-9.386667-7.662933-16.981333-16.9984-16.981333h-7.7824c-9.386667 0-16.9984 7.799467-16.9984 16.9472V415.7952z m172.032-51.8656c0 11.741867 2.048 22.1184 6.144 31.1296s9.489067 16.452267 16.1792 22.3232a69.7344 69.7344 0 0 0 22.528 13.312c8.328533 3.003733 16.725333 4.5056 25.1904 4.5056s16.861867-1.501867 25.1904-4.5056c8.328533-3.003733 15.837867-7.441067 22.528-13.312 6.690133-5.870933 12.0832-13.312 16.1792-22.3232s6.144-19.387733 6.144-31.1296V209.92c0-12.014933-2.048-22.459733-6.144-31.3344s-9.489067-16.247467-16.1792-22.1184a69.7344 69.7344 0 0 0-22.528-13.312c-8.328533-3.003733-16.725333-4.5056-25.1904-4.5056s-16.861867 1.501867-25.1904 4.5056a69.7344 69.7344 0 0 0-22.528 13.312 65.416533 65.416533 0 0 0-16.1792 22.1184c-4.096 8.874667-6.144 19.319467-6.144 31.3344v154.0096z m41.7792-154.0096c0-10.103467 2.798933-17.544533 8.3968-22.3232 5.597867-4.778667 12.219733-7.168 19.8656-7.168 7.645867 0 14.267733 2.389333 19.8656 7.168 5.597867 4.778667 8.3968 12.219733 8.3968 22.3232v154.0096c0 10.103467-2.798933 17.544533-8.3968 22.3232a29.610667 29.610667 0 0 1-19.8656 7.168c-7.645867 0-14.267733-2.389333-19.8656-7.168-5.597867-4.778667-8.3968-12.219733-8.3968-22.3232V209.92z m162.6112 183.5008h-31.4368a16.913067 16.913067 0 0 0-16.896 16.896v5.5296c0 9.335467 7.645867 16.896 16.981334 16.896h104.482133c9.386667 0 16.981333-7.5776 16.981333-16.896v-5.5296a16.896 16.896 0 0 0-16.896-16.896h-31.4368v-235.3664a16.9984 16.9984 0 0 0-16.9984-16.9472h-7.7824a16.9472 16.9472 0 0 0-16.9984 16.9472V393.4208z"  horiz-adv-x="1024" />

    
    <glyph glyph-name="saoyisao" unicode="&#58953;" d="M128 480a32 32 0 0 1 32 32V736h224a32 32 0 0 1 0 64H160a64.07 64.07 0 0 1-64-64v-224a32 32 0 0 1 32-32z m256-448H160V256a32 32 0 0 1-64 0v-224a64.07 64.07 0 0 1 64-64h224a32 32 0 0 1 0 64z m512 256a32 32 0 0 1-32-32v-224H640a32 32 0 0 1 0-64h224a64.07 64.07 0 0 1 64 64V256a32 32 0 0 1-32 32zM864 800H640a32 32 0 0 1 0-64h224v-224a32 32 0 0 1 64 0V736a64.07 64.07 0 0 1-64 64z m32-384H128a32 32 0 0 1 0-64h768a32 32 0 0 1 0 64z"  horiz-adv-x="1024" />

    
    <glyph glyph-name="fuwu" unicode="&#59030;" d="M242.688 19.968c-11.776-6.144-29.184-16.896-39.936-23.552l-4.096-2.56c-6.656-4.096-12.8-2.048-17.92 5.12-6.144 9.216-38.912 54.272-58.88 81.408-7.168 10.24-13.312 17.92-14.336 19.968-4.608 6.144-6.144 12.288-5.632 14.848 0 0.512 0 1.024 2.048 2.56 9.216 4.608 39.424 22.016 46.08 25.6 1.536 0.512 4.096 2.048 7.68 1.536 2.56-0.512 5.12-1.536 7.68-5.12 3.584-4.096 17.92-23.552 33.792-44.544 20.48-26.624 44.032-57.344 48.128-62.976 2.048-2.56 2.56-5.12 2.56-7.168-1.024-1.536-3.584-3.072-7.168-5.12zM229.376 125.44c-23.552 31.232-45.568 59.392-50.176 66.56-15.36 20.48-38.4 20.48-53.248 11.264-11.776-6.144-55.296-31.744-67.072-37.376-10.752-5.12-15.36-14.336-16.896-19.968-4.096-16.896 5.632-34.816 12.288-43.52 2.56-3.072 10.24-14.848 22.016-30.208 29.696-40.448 78.336-108.032 87.552-121.344 8.704-13.312 19.456-19.456 29.696-20.992 10.24-1.536 20.48 1.024 28.672 6.144l6.144 4.096c15.36 9.728 40.448 25.6 57.344 33.792 15.872 7.68 20.992 18.432 23.04 26.112 2.048 7.68 2.048 18.432-8.192 31.744-5.12 7.68-39.936 53.248-71.168 93.696zM384 439.808c-74.752 7.68-206.848-154.112-206.848-154.112l6.656-32.768L341.504 33.28l27.648 3.584 2.56 2.048c0.512 0 35.84 32.256 64.512 40.96 12.8 3.584 57.856 0 101.376-4.096 58.368-4.608 121.344 2.56 155.136 9.728 40.448 9.728 127.488 83.456 250.88 245.248l2.048 2.048c11.264 13.312 38.912 57.856 28.16 83.968-20.48 48.64-66.56 35.328-93.696 10.752-10.24-9.216-26.624-28.672-45.568-51.2-34.816-40.96-88.064-95.744-107.52-99.328-25.088-4.608-92.16-6.144-181.248 6.656-27.648 4.096-34.304 13.312-36.352 15.36 0.512 3.072 4.096 7.68 6.144 8.704 6.144 2.048 48.64 6.656 85.504 10.24 41.984 4.608 84.992 9.728 107.52 13.312 27.136 4.608 38.912 30.208 38.4 54.272-0.512 12.8-1.536 34.816-26.624 49.664m186.88-84.48l-1.536-1.536C762.88 173.568 710.656 141.312 692.224 137.216c-28.16-5.632-86.528-1.536-138.24 2.56s-83.968 6.656-97.792 2.56c-25.088-8.192-54.272-29.696-62.464-37.376l-10.752-1.536-130.56 171.52-1.024 5.632c19.968 25.088 104.96 97.28 152.576 108.032 49.152 12.288 163.328 17.92 235.008 12.288 24.576-1.536 44.544-5.632 54.784-6.144 16.384-1.024 24.064-7.168 16.896-22.016 0 0-7.68-0.512-18.432-2.048-19.968-3.072-51.2 3.072-86.528-1.024-49.152 5.12-94.72-12.288-108.544-12.8-9.216-4.096-66.048-36.352-58.368-58.368-10.24-37.888 99.328-80.384 112.128-82.432 25.6-6.656 158.72-6.656 190.976 5.12 21.504 4.096 79.872 67.072 105.472 102.4 16.384 18.432 37.888 43.52 37.888 43.52 13.312 12.288 28.16 35.328 39.424 17.408-1.536-7.68-8.192-21.504-17.408-33.792zM837.12 815.104c-40.448 23.04-94.208 29.184-152.064-28.16l-83.968-83.968c-2.048-2.048-4.608-3.072-7.68-3.072-2.56 0-5.632 1.024-7.68 3.072-4.096 4.096-4.096 10.752 0 14.848l83.968 83.968c0.512 0.512 3.072 3.072 7.68 6.656-23.04 19.968-52.736 30.72-83.968 30.72-34.816 0-67.072-13.312-91.136-37.888-24.064-24.064-37.888-56.832-37.888-91.136 0-34.816 13.312-67.072 37.888-91.136l167.424-167.424c2.048-2.048 4.608-3.072 7.68-3.072 2.56 0 5.632 1.024 7.68 3.072L852.48 619.008c50.176 50.176 50.176 132.096 0 182.784-4.608 5.12-9.728 9.216-15.36 13.312z"  horiz-adv-x="1024" />

    
    <glyph glyph-name="fukuan3" unicode="&#58934;" d="M979.456 221.696c-21.504-4.608-42.496-11.264-64-16.384 37.888 84.992 48.64 181.76 28.16 272.384-21.504 100.352-79.872 192-160.256 254.976-77.824 60.928-176.128 95.744-274.944 94.72-72.704 0.512-145.92-17.92-209.92-52.736-97.28-51.712-174.080-141.312-210.432-246.272-32.256-93.184-32.256-197.632 0-290.816 28.672-83.456 82.944-157.696 153.6-210.432 83.968-63.488 190.976-95.744 295.936-88.064 92.16 5.12 181.76 41.472 253.952 99.84-13.824 14.336-28.16 28.16-42.496 42.496-48.64-38.4-106.496-66.56-167.424-77.824-86.016-16.896-178.176-2.56-254.976 39.936-79.36 43.52-142.336 115.2-174.592 199.68-34.304 88.064-34.304 188.416 0 275.968 29.696 77.824 85.504 144.896 156.16 188.416 72.192 45.056 159.744 64.512 244.736 55.296 73.216-7.68 143.872-37.376 200.704-83.968 77.312-61.952 128-155.648 138.752-253.952 7.168-67.584-1.024-137.216-29.696-199.168-7.68 25.088-13.312 50.688-21.504 75.264-3.584 11.264-14.848 18.944-26.112 19.968-18.944 1.536-36.352-18.432-30.72-36.864 14.336-55.296 29.696-110.592 44.032-165.888 55.808 10.752 110.592 26.112 165.376 41.472 7.68 2.56 15.872 6.144 19.968 13.312 11.264 21.504-9.216 54.272-34.304 48.64zM647.168 514.048c15.872 14.848 6.144 44.032-14.336 48.64-13.312 5.12-26.112-4.096-35.328-13.312l-75.264-75.264-76.8 76.8c-8.704 9.728-23.040 16.896-35.84 10.24-18.944-7.168-27.136-34.304-12.288-49.152 26.624-27.648 53.76-53.76 80.896-80.896l-10.24-10.24c-19.968-1.024-40.448 2.56-59.904-2.048-24.064-9.216-24.064-46.080 0-55.296 26.624-6.656 54.784-1.536 82.432-3.072v-39.936c-24.576-0.512-49.664 1.024-74.24-0.512-15.36-1.024-27.648-15.872-26.624-31.232 0-15.872 15.872-29.696 31.232-28.672 23.040-0.512 46.080 0 69.632 0 0.512-24.064-0.512-48.128 0-72.192 0.512-14.336 12.8-27.648 27.648-28.672 16.384-2.048 31.744 12.288 32.768 28.16 1.024 24.064 0 48.128 0 72.192 23.040 0.512 46.080-0.512 69.632 0 17.408-1.024 34.304 15.872 31.232 33.792-1.536 15.36-16.384 27.648-31.744 26.624-23.040 0.512-46.080 0-69.12 0v39.936c26.112 1.024 52.224-2.048 77.824 1.536 25.088 5.12 31.232 43.008 7.68 54.784-19.968 8.192-42.496 2.048-63.488 4.096-3.072 3.584-5.632 7.168-8.192 10.752 27.136 28.672 55.296 55.296 82.432 82.944z"  horiz-adv-x="1024" />

    
    <glyph glyph-name="huiyuan" unicode="&#58880;" d="M32 475.2c0-24.8 20-44.8 44-44.8 28.8 0 51.2 28.8 41.6 59.2-4.8 16-18.4 28-34.4 30.4-28 4-51.2-17.6-51.2-44.8zM76 415.2c-32.8 0-59.2 27.2-59.2 60 0 33.6 25.6 60 59.2 60 3.2 0 6.4 0 10.4-0.8 21.6-3.2 40-20 46.4-40.8 5.6-19.2 2.4-39.2-8.8-54.4-12-15.2-29.6-24-48-24zM76 505.6c-16 0-29.6-13.6-29.6-30.4 0-16.8 12.8-30.4 29.6-30.4 8.8 0 17.6 4 23.2 12 5.6 8 7.2 18.4 4.8 28-3.2 10.4-12 18.4-22.4 20-2.4 0-4 0.8-5.6 0.8zM208.8-43.2h604.8v-40h-604.8zM130.4 392.8l96-380.8h573.6l99.2 380.8-182.4-165.6-202.4 309.6-192-326.4zM815.2-8h-604l-116 461.6 223.2-212 196 332 207.2-316.8 213.6 194.4-120-459.2zM241.6 31.2h543.2l79.2 303.2-150.4-136.8-197.6 302.4-188.8-320.8-161.6 153.6 76-301.6zM458.4 620c0-32 25.6-57.6 56.8-57.6s56.8 26.4 56.8 57.6c0 32-25.6 57.6-56.8 57.6-32 0.8-56.8-24.8-56.8-57.6zM514.4 547.2c-39.2 0-71.2 32.8-71.2 72.8 0 40.8 31.2 72.8 71.2 72.8 39.2 0 71.2-32.8 71.2-72.8s-31.2-72.8-71.2-72.8zM514.4 663.2c-23.2 0-41.6-19.2-41.6-43.2s18.4-43.2 41.6-43.2 41.6 19.2 41.6 43.2-18.4 43.2-41.6 43.2zM890.4 482.4c0-28 22.4-50.4 49.6-50.4 32 0 57.6 32 47.2 66.4-5.6 16.8-19.2 30.4-36 33.6-33.6 7.2-60.8-17.6-60.8-49.6zM939.2 416.8c-35.2 0-64.8 29.6-64.8 65.6 0 36.8 28 65.6 64.8 65.6 4.8 0 9.6-0.8 13.6-1.6 22.4-4.8 40.8-21.6 47.2-44 6.4-20.8 3.2-42.4-9.6-60-11.2-15.2-30.4-25.6-51.2-25.6zM939.2 518.4c-19.2 0-34.4-16-34.4-36s15.2-36 34.4-36c11.2 0 20.8 4.8 27.2 14.4 7.2 9.6 8.8 21.6 5.6 32.8-3.2 12-13.6 20.8-24.8 23.2-2.4 1.6-4.8 1.6-8 1.6z"  horiz-adv-x="1024" />

    
    <glyph glyph-name="huiyuan1" unicode="&#58997;" d="M512 384m-512 0a512 512 0 1 1 1024 0 512 512 0 1 1-1024 0ZM848.457143 632.451657L617.823086 632.685714l-228.586057-263.636114V632.451657H204.8v-45.436343h46.167771v-501.116343h138.269258L848.457143 632.451657z"  horiz-adv-x="1024" />

    
    <glyph glyph-name="fanhuidingbu" unicode="&#58900;" d="M514.735 384m-500.244 0a500.244 500.244 0 1 1 1000.488 0 500.244 500.244 0 1 1-1000.488 0ZM542.693 522.192l-24.609 24.475-188.048-186.868 24.622-24.465 145.954 145.041v-306.847c0-14.089 7.45-22.757 17.065-22.757s17.065 8.668 17.065 22.757V480.822l145.899-145.765 24.678 24.531-162.682 162.547 0.056 0.057z m-178.611 60.925h318.57c10.567 0 22.758 6.716 22.758 17.067s-12.19 17.067-22.758 17.067h-318.57c-10.555 0-22.021-7.067-22.021-17.067s11.465-17.067 22.021-17.067zM511.989-127.979C229.673-127.979 0 101.694 0 384.011S229.673 896 511.989 896s511.989-229.673 511.989-511.989-229.672-511.99-511.989-511.99z m0 1001.225c-269.761 0-489.235-219.474-489.235-489.235s219.474-489.235 489.235-489.235 489.235 219.475 489.235 489.235c0.001 269.761-219.474 489.235-489.235 489.235z"  horiz-adv-x="1024" />

    
    <glyph glyph-name="xingxing" unicode="&#58881;" d="M512-128c-68.8 0-136 12.8-200 40-60.8 25.6-115.2 62.4-163.2 110.4-46.4 46.4-83.2 102.4-110.4 163.2C14.4 248 0 315.2 0 384s12.8 136 40 200c25.6 60.8 62.4 115.2 110.4 163.2 46.4 46.4 102.4 83.2 163.2 110.4C376 883.2 443.2 896 512 896c68.8 0 136-12.8 200-40 60.8-25.6 115.2-62.4 163.2-110.4 46.4-46.4 83.2-102.4 110.4-163.2 25.6-60.8 38.4-128 38.4-198.4s-12.8-136-40-200c-25.6-60.8-62.4-115.2-110.4-163.2-46.4-46.4-102.4-83.2-163.2-110.4-60.8-24-128-38.4-198.4-38.4z m0 971.2C260.8 843.2 54.4 636.8 54.4 384S260.8-73.6 512-73.6 971.2 132.8 971.2 384 764.8 843.2 512 843.2zM656 113.6c-9.6 0-19.2 1.6-27.2 6.4-36.8 19.2-91.2 46.4-113.6 57.6-27.2-12.8-78.4-40-115.2-57.6-9.6-4.8-19.2-6.4-27.2-6.4-14.4 0-28.8 6.4-38.4 16-11.2 11.2-16 28.8-14.4 46.4 4.8 43.2 12.8 100.8 16 124.8-19.2 20.8-65.6 75.2-96 110.4-12.8 14.4-16 33.6-8 51.2 6.4 19.2 24 32 46.4 35.2 40 8 97.6 19.2 121.6 24 12.8 24 44.8 83.2 67.2 123.2 4.8 11.2 20.8 41.6 49.6 41.6 4.8 0 9.6-1.6 12.8-3.2 12.8-4.8 24-17.6 36.8-38.4 22.4-40 52.8-99.2 67.2-123.2 25.6-4.8 81.6-16 120-24 22.4-3.2 38.4-17.6 46.4-35.2 6.4-17.6 3.2-36.8-8-51.2-28.8-35.2-76.8-89.6-94.4-110.4 3.2-25.6 11.2-83.2 14.4-126.4 1.6-19.2-3.2-35.2-14.4-46.4-12.8-8-25.6-14.4-41.6-14.4zM652.8 169.6c1.6 0 1.6 0 1.6-1.6v3.2l-16 136-1.6 12.8 8 9.6s64 73.6 100.8 118.4c-1.6 0-1.6 1.6-3.2 1.6-51.2 9.6-132.8 25.6-134.4 25.6l-12.8 3.2-6.4 11.2c0 1.6-44.8 83.2-72 134.4 0 1.6-1.6 1.6-1.6 3.2 0 0-1.6-1.6-1.6-3.2v-1.6c-28.8-49.6-73.6-132.8-73.6-132.8l-6.4-11.2-12.8-3.2c-1.6 0-83.2-16-136-25.6-1.6 0-3.2 0-3.2-1.6 36.8-44.8 100.8-116.8 102.4-116.8l8-9.6-1.6-12.8c0-1.6-11.2-81.6-16-136v-3.2s1.6 0 3.2 1.6c43.2 20.8 107.2 54.4 126.4 64l12.8 6.4 12.8-6.4c-1.6-3.2 73.6-41.6 123.2-65.6z"  horiz-adv-x="1024" />

    
    <glyph glyph-name="fenlei" unicode="&#59020;" d="M814.08 24.576c0-2.048-1.024-3.072 0-3.072l-633.856-0.512c-0.512 0-1.536 1.536-1.536 3.584V550.912h634.88v-526.336zM178.688 723.968c0 2.048 0.512 3.072 0 3.072h140.8v-17.92c0-19.456 15.872-35.328 35.328-35.328 19.456 0 35.328 15.872 35.328 35.328V727.04h211.456v-17.408c0-19.456 15.872-35.328 35.328-35.328s35.328 15.872 35.328 35.328V727.04h140.288c0.512-1.024 1.024-2.048 1.024-3.072v-102.912h-634.88V723.968z m634.88 73.728h-140.8v17.408c0 19.456-15.872 35.328-35.328 35.328s-35.328-15.872-35.328-35.328v-17.408H390.656v17.408c0 19.456-15.872 35.328-35.328 35.328-19.456 0-35.328-15.872-35.328-35.328v-17.408H178.176c-38.912 0-70.144-33.28-70.144-73.728v-699.392c0-40.448 31.744-73.728 70.144-73.728H814.08c38.912 0 70.144 33.28 70.144 73.728V723.968c0 40.96-31.744 73.728-70.656 73.728z m0 0M355.328 338.944h282.112c19.456 0 35.328 15.872 35.328 35.328 0 19.456-15.872 35.328-35.328 35.328H355.328c-19.456 0-35.328-15.872-35.328-35.328 0-19.456 15.872-35.328 35.328-35.328m0-176.128h282.112c19.456 0 35.328 15.872 35.328 35.328 0 19.456-15.872 35.328-35.328 35.328H355.328c-19.456 0-35.328-15.872-35.328-35.328 0-19.456 15.872-35.328 35.328-35.328"  horiz-adv-x="1024" />

    
    <glyph glyph-name="shouji1" unicode="&#58890;" d="M362.788571 616.106667h317.927619v-410.575238H362.788571zM481.767619 635.611429h66.316191c3.413333 0 6.826667 2.925714 6.826666 6.826666v6.826667c0 3.413333-2.925714 6.826667-6.826666 6.826667H481.767619c-3.413333 0-6.826667-2.925714-6.826667-6.826667V642.438095c0.487619-3.900952 3.413333-6.826667 6.826667-6.826666zM521.752381 178.71238100000005c-14.628571 0-26.331429-11.702857-26.331429-26.331429 0-14.628571 11.702857-26.331429 26.331429-26.331428 14.628571 0 26.331429 11.702857 26.331429 26.331428 0 14.140952-11.702857 26.331429-26.331429 26.331429zM512 871.619048C242.834286 871.619048 24.380952 653.165714 24.380952 384s218.453333-487.619048 487.619048-487.619048 487.619048 218.453333 487.619048 487.619048S781.165714 871.619048 512 871.619048z m208.700952-746.057143c0-21.942857-18.041905-39.984762-39.984762-39.984762H362.788571c-21.942857 0-39.984762 18.041905-39.984761 39.984762V642.438095c0 21.942857 18.041905 39.984762 39.984761 39.984762h317.927619c21.942857 0 39.984762-18.041905 39.984762-39.984762v-516.87619z"  horiz-adv-x="1024" />

    
    <glyph glyph-name="shezhi" unicode="&#58898;" d="M912.8 472.5l-98.5 23.7c-0.4 1.1-0.8 2.1-1.2 3.1l56.3 90.5 8.7 14-11.7 11.5-113.8 112-11.1 11-13.1-8.4-82.9-53.5c-2.4 1.1-4.9 2.2-7.4 3.2l-21.2 102.2-3.3 16H422.8l-3.7-15.4-24-99.1-90.3 56-13.2 8.2-11-11.1-112-113.6-11.4-11.8 9-13.9 53.3-82.2c-0.5-1-0.9-2.1-1.4-3.1l-104.8-25.3-15.3-3.7v-191.7l15.9-3.3 98.6-20.4 1.2-3-57.7-94.3-8.5-13.8 11.4-11.4 112.7-112.5 11.2-11.2 13.2 8.7 88.1 57.9c0.2-0.1 0.3-0.1 0.5-0.2l25.2-104.4 3.7-15.4h190.8l3.3 16 20.3 98.1c0.8 0.3 1.7 0.6 2.5 1l95-58 13-8 10.9 10.9L862 140.3l11.8 11.8-9.2 14-56.7 86.2 104.3 21.5 15.9 3.3V468.9l-15.3 3.6zM732.6 67.6l-90.3 55.2-8.6 5.2-9.2-3.9c-6.5-2.8-13.2-5.4-19.9-7.7l-10.7-3.7-2.3-11.3-19.3-93.2H444.4l-23.9 99-2.5 10.2-9.6 3.8c-6 2.4-11.9 5-17.7 7.8l-9.9 4.7-9.2-6-83.9-55.1-90 89.9 54.7 89.4 5.6 9.1-4.3 9.8c-3 6.8-5.7 13.8-8.1 20.9l-3.7 10.9-11 2.3-93.5 19.3V450.8l99.3 23.9 9.9 2.4 3.9 9.7c2.8 7 5.9 13.8 9.2 20.6l5.2 10.5-6.4 9.8-50.5 78 89.5 90.8 86.3-53.5 8.6-5.3 9.3 4c5.4 2.3 10.8 4.4 16.3 6.4l10.1 3.6 2.6 10.6 23 95.1h127.8l20.1-96.8 2.3-10.9 10.2-3.9c8.3-3.2 16.4-6.7 24.3-10.6l9.9-4.9 9.3 6 78.9 50.9 90.9-89.4-53.1-85.4-5.7-9.1 4.2-9.9c2.9-6.8 5.6-13.8 7.9-20.8l3.6-10.5 10.6-2.6 93.6-22.6v-126.5l-99.1-20.5-10.3-2.1-4-10c-2.4-5.9-5-11.8-7.8-17.6l-5.1-10.6 6.4-9.8 54.1-82.2-90.1-90zM511.3 557.2c-95.4 0-173-77.6-173-173s77.6-173 173-173 173 77.6 173 173-77.6 173-173 173z m0-306c-73.3 0-133 59.6-133 133s59.6 133 133 133c73.3 0 133-59.6 133-133s-59.7-133-133-133z"  horiz-adv-x="1024" />

    
    <glyph glyph-name="pintuan" unicode="&#58922;" d="M636.416 604.4672H344.8832v-443.2896h298.7008c20.48 1.6384 31.5392 13.4144 33.1776 35.5328V564.1216a38.7072 38.7072 0 0 1-40.3456 40.3456z m21.4016-122.88h-52.224v-237.4656c0-40.96-18.1248-62.464-54.4768-64a168.6528 168.6528 0 0 0-118.4768 56.9344 26.3168 26.3168 0 0 0-7.168-4.7104c-23.6544-17.5104-41.8816-30.1056-54.4768-37.9904l-14.2336 11.8784a265.1136 265.1136 0 0 1 45.056 71.0656 231.3216 231.3216 0 0 0-26.112 104.3456q2.3552 75.8784 71.0656 80.5888 59.2896-2.4576 61.44-68.7104a229.5808 229.5808 0 0 0-68.7104-149.4016 101.376 101.376 0 0 1 54.4768-30.72q28.5696-4.8128 30.72 21.4016V481.1776H363.8272v30.72h161.1776v64.1024h80.5888v-64h52.224zM418.4064 433.7664q-28.5696-4.8128-30.72-52.1216a194.56 194.56 0 0 1 21.2992-92.16 369.9712 369.9712 0 0 1 23.7568 106.7008q4.5056 42.3936-14.336 37.5808zM512 896a512 512 0 1 1 512-512A512 512 0 0 1 512 896z m250.0608-692.1216q0-75.8784-85.2992-75.8784H261.9392V640h414.8224q80.4864-4.7104 85.2992-73.5232z"  horiz-adv-x="1024" />

    
    <glyph glyph-name="soushuo" unicode="&#58882;" d="M240.776 655.1279999999999A302.952 302.952 0 0 1 157.328 384c18.048 81.912 60.48 161.952 126.576 228.096C350.048 678.264 430.088 720.672 512 738.72c-95.28 17.952-197.52-9.864-271.224-83.592zM959.6 93.26400000000001l-114.096 114.096a110.64 110.64 0 0 1-87 31.992c107.304 155.208 91.8 369.744-46.392 507.96-155.568 155.616-407.856 155.616-563.472 0-155.568-155.616-155.568-407.928 0-563.544 138.192-138.216 352.56-153.6 507.864-46.296-2.4-31.2 8.304-63.312 31.992-87l114.096-114.12c43.2-43.104 113.784-43.104 156.888 0 43.32 43.104 43.32 113.712 0.12 156.912zM665.84 230.15999999999997c-130.008-130.008-340.68-130.008-470.64 0-130.008 130.008-130.008 340.728 0 470.736 129.96 130.008 340.632 130.008 470.64 0 129.984-129.912 129.984-340.728 0-470.736z"  horiz-adv-x="1024" />

    
    <glyph glyph-name="v-icon-arrow-left" unicode="&#58893;" d="M852.71860185 383.14724545l-84.34526786-84.34526786-506.07160928 506.07160823 84.34526893 84.34526892 506.07160821-506.07160929ZM852.71860185 383.14724545l-506.07160821-506.07160823-84.34526893 84.34526787 506.07160928 506.07160928 84.34526786-84.34526892Z"  horiz-adv-x="1024" />

    
    <glyph glyph-name="pingjia" unicode="&#58924;" d="M512 444.6m-40.4 0a40.4 40.4 0 1 1 80.8 0 40.4 40.4 0 1 1-80.8 0ZM673.7 444.6m-40.4 0a40.4 40.4 0 1 1 80.8 0 40.4 40.4 0 1 1-80.8 0ZM350.3 444.6m-40.4 0a40.4 40.4 0 1 1 80.8 0 40.4 40.4 0 1 1-80.8 0ZM128 768v-646.7h262.7L512 0l121.3 121.3H896V768H128z m707.4-586.1H608.2L588 161.7l-40.4-40.4-35.6-35.6-35.5 35.5-40.4 40.4-20.2 20.2H188.6V707.4h646.7v-525.5z"  horiz-adv-x="1024" />

    
    <glyph glyph-name="dianshi" unicode="&#58937;" d="M903.5 738.7c11.6 0 23.1-11.6 23.1-23.1v-555c0-11.6-11.6-23.1-23.1-23.1H117.2c-11.6 0-23.1 11.6-23.1 23.1v555c0 11.6 11.6 23.1 23.1 23.1h786.3m0 46.2H117.2c-37 0-69.4-32.4-69.4-69.4v-555c0-39.3 32.4-69.4 69.4-69.4h786.3c39.3 0 69.4 30.1 69.4 69.4v555c0 37-30.1 69.4-69.4 69.4zM903.5 137.4H232.9c-37 0-69.4 30.1-69.4 69.4V599.9c0 37 32.4 69.4 69.4 69.4h624.4c39.3 0 69.4-32.4 69.4-69.4v-439.4c-0.1-11.5-11.6-23.1-23.2-23.1zM649.1 33.4H371.6c-6.9 0-11.6 4.6-11.6 11.6 0 6.9 4.6 11.6 11.6 11.6h277.5c6.9 0 11.6-4.6 11.6-11.6s-4.6-11.6-11.6-11.6zM811-36H209.7c-6.9 0-11.6 4.6-11.6 11.6 0 6.9 4.6 11.6 11.6 11.6H811c6.9 0 11.6-4.6 11.6-11.6S817.9-36 811-36zM267.6 195.2h-92.5c-6.9 0-11.6 4.6-11.6 11.6s4.6 11.6 11.6 11.6h92.5c6.9 0 11.6-4.6 11.6-11.6s-4.7-11.6-11.6-11.6zM880.4 414.9c-6.9 0-11.6 4.6-11.6 11.6V657.7c0 6.9 4.6 11.6 11.6 11.6s11.6-4.6 11.6-11.6v-231.3c-0.1-6.9-4.7-11.5-11.6-11.5z"  horiz-adv-x="1024" />

    
    <glyph glyph-name="shouhuo" unicode="&#58966;" d="M896.095787 580.266667c0 35.346133 28.653867 64 64 64s64-28.653867 64-64v-532.0256C1024.095787-48.384 948.434987-128 853.42912-128H170.762453C75.756587-128 0.095787-48.385067 0.095787 48.241067V580.266667c0 35.346133 28.653867 64 64 64s64-28.653867 64-64v-532.0256C128.095787 20.8896 147.948587 0 170.762453 0h682.666667c22.813867 0 42.666667 20.8896 42.666667 48.241067V580.266667zM175.01312 644.266667l20.357333 35.2192A42.666667 42.666667 0 0 0 232.30912 700.8h559.573333a42.666667 42.666667 0 0 0 36.938667-21.314133L849.178453 644.266667h-674.165333zM64.095787 516.266667h896c49.282133 0 80.072533 53.362133 55.409066 96.0288L939.639253 743.541333C909.14112 796.304 852.823253 828.8 791.882453 828.8H232.310187c-60.941867 0-117.259733-32.496-147.757867-85.2576L8.68672 612.295467C-15.976747 569.6288 14.813653 516.266667 64.095787 516.266667zM469.060053 245.0112L674.687787 431.416533c26.186667 23.739733 66.661333 21.755733 90.4-4.432 23.7408-26.186667 21.755733-66.661333-4.432-90.401066L509.88032 109.248c-25.285333-22.920533-64.106667-21.970133-88.238933 2.162133L288.708053 244.344533c-24.994133 24.994133-24.994133 65.515733 0 90.509867 24.993067 24.993067 65.514667 24.993067 90.5088 0l89.8432-89.8432z"  horiz-adv-x="1024" />

    
    <glyph glyph-name="diannao" unicode="&#59033;" d="M880.64 156.672H143.36l-40.96 40.96v532.48l40.96 40.96h737.28l40.96-40.96v-532.48l-40.96-40.96z m-696.32 81.92h655.36v450.56H184.32v-450.56zM472.064 222.208h81.92v-103.424h-81.92zM369.664 119.808h286.72v-81.92h-286.72zM430.08 325.632h163.84v-61.44H430.08z"  horiz-adv-x="1024" />

    
    <glyph glyph-name="ios-mine-outline" unicode="&#58883;" d="M901.76-42.24000000000001H158.72c-15.36 0-30.72 7.68-40.32 19.2-9.6 13.44-13.44 28.8-9.6 44.16 38.4 195.84 197.76 341.76 389.76 357.12 7.68 1.92 13.44 1.92 23.04 1.92v-19.2c-7.68 0-13.44 0-21.12-1.92-184.32-13.44-337.92-153.6-374.4-341.76-1.92-9.6 0-21.12 7.68-28.8 5.76-7.68 15.36-11.52 24.96-11.52h743.04c9.6 0 19.2 3.84 24.96 11.52 5.76 7.68 9.6 17.28 7.68 28.8-23.04 122.88-97.92 228.48-203.52 288-11.52 7.68-24.96 13.44-36.48 19.2l7.68 17.28c13.44-5.76 26.88-13.44 38.4-19.2 111.36-63.36 188.16-172.8 213.12-301.44 3.84-15.36 0-30.72-11.52-44.16-9.6-11.52-24.96-19.2-40.32-19.2z m-374.4 403.2h-3.84v19.2h5.76l-1.92-19.2zM535.04 360.96000000000004c-120.96 0-220.8 99.84-220.8 220.8S414.08 802.56 535.04 802.56s220.8-99.84 220.8-220.8-99.84-220.8-220.8-220.8z m0 422.4c-111.36 0-201.6-90.24-201.6-201.6s90.24-201.6 201.6-201.6 201.6 90.24 201.6 201.6S646.4 783.36 535.04 783.36z"  horiz-adv-x="1024" />

    
    <glyph glyph-name="qicheqianlian-" unicode="&#58884;" d="M1005.94270776 98.96922112000004H265.53154332c-21.94242333 0-42.52558222 8.54395221-57.86585999 24.0784111-15.3402789 15.53445888-23.88423111 35.92343666-23.69005112 57.86586112l2.71853112 545.25952c0 21.74824334-7.57304889 36.3117989-45.24411334 42.3314011h-0.19417999l-108.74121557 18.64135111c-10.48576 1.74762667-17.67044779 11.84502557-15.92281998 22.33078557 1.74762667 10.48576 11.84502557 17.67044779 22.33078442 15.92282112l108.54703446-18.64135112c51.65207666-8.15559111 77.86647666-35.34089443 77.86647666-80.7791889L222.61759999 180.52513223999995c0-11.45666333 4.27197667-22.13660445 12.42756779-30.09801558 8.15559111-8.15559111 18.83553223-12.62174777 30.29219555-12.62174777h740.41116445c10.67994112 0 19.41807445-8.73813333 19.41807331-19.41807445s-8.54395221-19.41807445-19.22389333-19.41807332zM950.60119665 210.42896555000004l-685.65219556 2.13598891c-21.55406222 0.19418112-41.74885888 8.54395221-56.89495665 23.88423111-15.14609778 15.3402789-23.30168889 35.53507555-23.30168889 57.08913777l2.13598777 402.73085554L962.64040333 638.4033188999999c35.14671445-1.35926557 62.72037888-29.90383445 62.72037888-65.0505489V284.99437c0-41.16631666-33.59326777-74.56540445-74.75958556-74.56540445zM265.33736333 251.40110221999998l685.45801444-2.13598776c19.80643555 0 35.92343666 16.1170011 35.92343666 35.72925554V573.35277c0 14.17519445-11.26248334 25.8260389-25.43767666 26.2144h-0.77672334l-734.58574222 54.75896888-1.74762667-361.17617778c0-11.06830222 4.27197667-21.55406222 12.03920669-29.51547221 7.37886777-7.76723001 17.86462777-12.23338667 29.1271111-12.23338667zM340.87367111 34.889576680000005m-72.42941668 0a72.42941667 72.42941667 0 1 1 144.85883335 0 72.42941667 72.42941667 0 1 1-144.85883335 0ZM340.87367111-56.957914449999976c-50.68117333 0-91.84748999 41.16631666-91.84749 91.84749113s41.16631666 91.84748999 91.84749 91.84748999c50.68117333 0 91.84748999-41.16631666 91.84748998-91.84748999s-41.16631666-91.84748999-91.84748998-91.84749113z m0 144.85883335c-29.32129223 0-53.01134222-23.69004999-53.01134223-53.01134222s23.69004999-53.01134222 53.01134223-53.01134222 53.01134222 23.69004999 53.01134222 53.01134222-23.69004999 53.01134222-53.01134222 53.01134222zM896.81313223 34.889576680000005m-72.42941668 0a72.42941667 72.42941667 0 1 1 144.85883221 0 72.42941667 72.42941667 0 1 1-144.85883221 0ZM896.81313223-56.957914449999976c-50.68117333 0-91.84748999 41.16631666-91.84749114 91.84749113s41.16631666 91.84748999 91.84749114 91.84748999 91.84748999-41.16631666 91.84748998-91.84748999-41.16631666-91.84748999-91.84748998-91.84749113z m0 144.85883335c-29.32129223 0-53.01134222-23.69004999-53.01134223-53.01134222s23.69004999-53.01134222 53.01134223-53.01134222 53.01134222 23.69004999 53.01134222 53.01134222-23.69004999 53.01134222-53.01134222 53.01134222zM780.30468778 469.66025444H384.56433777c-10.67994112 0-19.41807445 8.73813333-19.41807445 19.41807445s8.73813333 19.41807445 19.41807445 19.41807445h395.74035001c10.67994112 0 19.41807445-8.73813333 19.41807331-19.41807445s-8.73813333-19.41807445-19.41807331-19.41807445zM780.30468778 358.00632888999996H384.56433777c-10.67994112 0-19.41807445 8.73813333-19.41807445 19.41807445s8.73813333 19.41807445 19.41807445 19.41807332h395.74035001c10.67994112 0 19.41807445-8.73813333 19.41807331-19.41807332s-8.73813333-19.41807445-19.41807331-19.41807445z"  horiz-adv-x="1024" />

    
    <glyph glyph-name="faxian" unicode="&#58943;" d="M497.434483-77.241379c-244.082759 0-442.262069 198.62069-442.262069 442.262069 0 88.717241 26.041379 174.344828 75.475862 247.172413 7.062069 10.593103 21.627586 13.241379 32.22069 6.179311 10.593103-7.062069 13.241379-21.627586 6.17931-32.22069-44.137931-64.882759-67.531034-141.241379-67.531035-220.689655 0-218.482759 177.875862-396.358621 396.358621-396.358621s396.358621 177.875862 396.358621 396.358621-177.875862 396.358621-396.358621 396.358621c-49.434483 0-97.544828-8.827586-143.006896-26.482759-11.917241-4.413793-25.158621 1.324138-30.013794 13.241379-4.413793 11.917241 1.324138 25.158621 13.24138 30.013793 50.758621 19.862069 104.606897 29.572414 159.77931 29.572414C741.517241 807.724138 940.137931 609.103448 940.137931 365.462069s-198.62069-442.703448-442.703448-442.703448zM237.462069 694.731034m-22.951724 0a22.951724 22.951724 0 1 1 45.903448 0 22.951724 22.951724 0 1 1-45.903448 0ZM497.434483 365.462069m-160.662069 0a160.662069 160.662069 0 1 1 321.324138 0 160.662069 160.662069 0 1 1-321.324138 0ZM419.751724 447.558621m-47.227586 0a47.227586 47.227586 0 1 1 94.455172 0 47.227586 47.227586 0 1 1-94.455172 0Z"  horiz-adv-x="1024" />

    
    <glyph glyph-name="lipinqiagoumai" unicode="&#58947;" d="M53.9136 222.3104h997.0688v-80.8448H53.9136zM970.0864 599.6032a26.9824 26.9824 0 0 0 26.9824-26.9824V-20.48a26.9824 26.9824 0 0 0-26.9824-26.9312H107.776a26.9824 26.9824 0 0 0-26.9312 26.9312V572.6208a26.9824 26.9824 0 0 0 26.9312 26.9824z m0 80.7936H107.776a107.776 107.776 0 0 1-107.52-107.52V-20.48a107.8272 107.8272 0 0 1 107.52-107.52h862.3104a107.8272 107.8272 0 0 1 107.8272 107.52V572.6208a107.776 107.776 0 0 1-107.8272 107.52zM700.6208 896a161.6896 161.6896 0 1 1 161.6896-161.6896A161.6896 161.6896 0 0 1 700.6208 896z m0-242.5344a80.8448 80.8448 0 1 0 80.8448 80.8448 80.8448 80.8448 0 0 0-80.8448-80.8448zM565.9136 815.1552L278.3744 424.3968l64.9216-48.2304L611.1744 737.28zM386.1504 815.1552a80.8448 80.8448 0 1 0-80.8448-80.8448 80.8448 80.8448 0 0 0 80.8448 80.8448z m0 80.8448A161.6896 161.6896 0 1 1 547.84 734.3104 161.6896 161.6896 0 0 1 386.1504 896zM520.9088 815.1552L475.5968 737.28l267.8784-361.3696 64.9216 48.2304z"  horiz-adv-x="1077" />

    
    <glyph glyph-name="yuantemai-icon" unicode="&#58885;" d="M0 384A512 512 0 1 1 512 896 512.17832 512.17832 0 0 1 0 384zM626.525729 553.849369c25.900914-36.845276 38.561602-89.806182 38.561602-157.72364a322.535481 322.535481 0 0 0-41.437004-170.963866 135.968655 135.968655 0 0 0-118.002961-69.098824c-81.737222 0-128.367784 39.141141-140.426643 117.423422h50.085503a82.6734 82.6734 0 0 1 90.942969-74.82734 91.656247 91.656247 0 0 1 81.046234 51.244579 242.291685 242.291685 0 0 1 28.976926 123.085068c0 2.875403-0.579539 8.626208-0.579538 16.115629h-2.228995a131.510666 131.510666 0 0 0-47.2101-52.960905 128.657553 128.657553 0 0 0-68.496996-18.991032 134.00714 134.00714 0 0 0-102.533739 42.016543 143.324336 143.324336 0 0 0-37.513975 103.737397 145.308141 145.308141 0 0 0 42.016543 107.638136 151.772225 151.772225 0 0 0 226.800174-16.695167z m-191.693513-13.819765a110.847889 110.847889 0 0 1-27.059991-78.282281 100.014976 100.014976 0 0 1 27.059991-74.247802 94.910579 94.910579 0 0 1 72.531476-28.776317 98.075751 98.075751 0 0 1 71.951937 29.355856 105.877231 105.877231 0 0 1 28.196778 74.82734 107.125468 107.125468 0 0 1-27.059991 75.406878 93.617762 93.617762 0 0 1-73.111014 31.094471 91.098999 91.098999 0 0 1-72.531476-29.355855z"  horiz-adv-x="1024" />

    
    <glyph glyph-name="shouye" unicode="&#58886;" d="M371.852549-128h-40.156863C167.454118-128 33.932549-30.61960799999997 33.932549 89.04784299999994V468.128627a10.039216 10.039216 0 0 0 20.078431 0v-379.080784C54.01098-19.57647099999997 178.698039-107.92156899999998 331.896471-107.92156899999998h40.156862a10.039216 10.039216 0 0 0 0-20.078431zM777.637647-128h-124.28549a10.039216 10.039216 0 0 0 0 20.078431h124.28549c153.198431 0 277.88549 88.345098 277.88549 196.768628v158.820392a10.039216 10.039216 0 0 0 20.078432 0v-158.820392c0-119.466667-133.722353-216.847059-297.963922-216.847059zM1065.562353 355.08705899999995a10.039216 10.039216 0 0 0-10.039216 10.039216v13.653333a10.039216 10.039216 0 1 0 20.078432 0v-13.653333a10.039216 10.039216 0 0 0-10.039216-10.039216zM1065.562353 220.56156899999996a10.039216 10.039216 0 0 0-10.039216 10.039215V333.80392199999994a10.039216 10.039216 0 1 0 20.078432 0v-103.002353a10.039216 10.039216 0 0 0-10.039216-10.24zM1065.562353 396.850196a10.039216 10.039216 0 0 0-10.039216 10.039216v60.235294a10.039216 10.039216 0 0 0 20.078432 0v-60.235294a10.039216 10.039216 0 0 0-10.039216-10.039216zM1094.27451 429.778824a10.039216 10.039216 0 0 0-7.027451 2.81098L869.998431 645.621961a10.039216 10.039216 0 0 0 14.054902 14.255686l217.248628-212.831372a10.039216 10.039216 0 0 0-7.027451-17.267451zM845.703529 673.330196a10.039216 10.039216 0 0 0-7.027451 2.81098l-20.078431 18.672942a10.039216 10.039216 0 0 0 14.054902 14.255686l20.078431-18.672941a10.039216 10.039216 0 0 0-7.027451-17.267451zM10.039216 427.77098a10.039216 10.039216 0 0 0-6.826667 17.267451L421.647059 842.591373a175.284706 175.284706 0 0 0 29.31451 23.29098 215.04 215.04 0 0 0 173.678431 20.078431 189.741176 189.741176 0 0 0 75.093333-45.778823l95.171765-93.364706a10.039216 10.039216 0 0 0-14.054902-14.255686l-95.171765 93.56549a169.662745 169.662745 0 0 1-67.06196 40.156863 194.961569 194.961569 0 0 1-156.812549-17.66902 152.596078 152.596078 0 0 1-26.302746-20.078431L16.865882 430.581961a10.039216 10.039216 0 0 0-6.826666-2.810981zM739.087059-125.38980400000003a7.629804 7.629804 0 0 0-7.42902 7.42902V161.932549c0 55.416471-35.940392 100.392157-80.313725 100.392157h-191.74902c-44.172549 0-80.313725-45.176471-80.313725-100.392157V-117.96078399999999a7.629804 7.629804 0 0 0-15.058824 0V161.932549c0 63.849412 42.767059 115.651765 95.372549 115.651765h191.949804c52.60549 0 95.372549-51.802353 95.372549-115.651765V-117.96078399999999a7.629804 7.629804 0 0 0-7.830588-7.42902z"  horiz-adv-x="1104" />

    
    <glyph glyph-name="yijiuhuanxin" unicode="&#58887;" d="M371.496421 532.210526h254.05979v-328.165052h-254.05979V532.210526z m0 37.052632v-5.281684H625.556211v5.281684a26.489263 26.489263 0 0 1-26.462316 26.489263h-201.135158a26.489263 26.489263 0 0 1-26.462316-26.489263z m0-402.270316c0-14.578526 11.856842-26.462316 26.462316-26.462316h201.135158c14.605474 0 26.462316 11.856842 26.462316 26.462316v5.308632H371.496421v-5.308632z m227.597474 460.530526c32.121263 0 58.206316-26.138947 58.206316-58.26021v-402.270316c0-32.094316-26.085053-58.206316-58.206316-58.206316h-201.135158c-32.094316 0-58.206316 26.112-58.206316 58.206316V569.263158c0 32.121263 26.112 58.233263 58.206316 58.233263h201.135158zM75.371789 369.125053c0-34.896842 4.338526-69.281684 12.826948-102.669474l2.506105-9.889684-8.838737-5.12-28.429473-16.384-15.090527-8.730948-4.634947 16.815158a474.462316 474.462316 0 0 0-17.030737 125.978948c0 212.291368 140.988632 397.204211 341.342316 456.353684V886.487579l189.089684-82.189474-189.089684-82.162526v41.768421C191.029895 706.964211 75.371789 549.133474 75.371789 369.152zM156.591158 32.552421l-49.475369-28.56421-23.390315 204.853894 165.726315-122.691368-39.936-23.04a415.258947 415.258947 0 0 1 283.055158-111.184842c113.178947 0 219.351579 45.541053 297.418106 124.981894l7.302736 7.437474 52.116211-30.073263-11.776-12.395789a474.462316 474.462316 0 0 0-345.061053-148.668632c-127.622737 0-247.376842 50.822737-335.979789 139.344842zM1006.295579 215.956211l-16.518737-12.234106-124.281263-92.025263-24.926316-18.432 23.390316 204.853895 35.435789-20.48a412.025263 412.025263 0 0 1 10.374737 91.486316c0 189.520842-128.215579 354.223158-308.897684 402.863158l-9.970526 2.694736v60.362106l16.734316-4.176842c210.297263-52.412632 360.825263-242.310737 360.825263-461.743158 0-41.498947-5.389474-82.378105-15.97979-122.071579l53.813895-31.097263z"  horiz-adv-x="1024" />

    
    <glyph glyph-name="jingxuan" unicode="&#58896;" d="M638.422998 310.893632c-62.275119-37.121809-105.867702 6.969462-161.915309 20.677286-56.047607 13.695661-128.284313-26.649372-181.096533-48.579458A156.962492 156.962492 0 0 0 197.522453 267.301049L222.432501 131.548587c4.14762-18.475763 20.190761-31.855183 39.104396-32.633622h483.994441a42.35073 42.35073 0 0 1 39.104396 31.636247l33.630997 183.833233c-39.858509 9.462899-132.018387 24.897885-179.843733-3.490813z m0 0M879.045787 550.020359c-7.723574 4.488187-24.910048 8.964211-47.083395-10.460274l-136.263313-115.586027a21.60898 21.60898 0 0 0-17.186473-5.473399 22.127128 22.127128 0 0 0-13.951086 11.457649l-115.087339 214.970792a47.830211 47.830211 0 0 1-41.099146 28.644122c-17.964912-0.936559-33.874259-11.919847-41.099146-28.40086l-116.084714-215.724904a21.698987 21.698987 0 0 0-14.194349-11.713075c-6.422122-0.948723-12.929385 1.070354-17.685161 5.485563l-142.977348 117.325351c-23.170723 18.925798-39.603084 14.194348-47.326658 9.718324-7.723574-4.476024-19.935336-16.687786-14.705199-46.086021L182.805091 124.299374c7.699248-37.511029 40.430175-64.646925 78.719643-65.267244h483.994441c38.167837 0.827091 70.704154 27.890009 78.464217 65.267244l69.500006 379.878226c5.497725 29.65366-6.714036 41.366734-14.437611 45.842759z m-60.779056-234.650703L784.635734 130.539049c-4.305741-18.378458-20.251577-31.684899-39.104396-32.633622H261.524734c-18.998777 0.668971-35.175712 14.072717-39.359822 32.633622L197.254865 266.303674l-42.838471 240.878214 139.498699-114.333226a59.319484 59.319484 0 0 1 50.562045-13.586193 59.313402 59.313402 0 0 1 41.609997 31.770041l116.084714 215.214054c1.508226 2.785352 3.344855 5.376094 5.485562 7.723575 2.858331-1.885282 5.108506-4.573329 6.470774-7.723575l115.087339-214.970792a58.798902 58.798902 0 0 1 41.682976-31.794367 58.762413 58.762413 0 0 1 50.489066 14.12137l131.775125 110.599152-34.89596-188.832271z m-58.528882-291.196997H258.046084c-12.929385 0-23.413985-10.4846-23.413985-23.413985s10.4846-23.413985 23.413985-23.413985h501.691765c12.929385 0 23.413985 10.4846 23.413985 23.413985s-10.496763 23.413985-23.413985 23.413985z m-622.751191 589.874307c0 23.66941-19.181223 42.850634-42.850633 42.850633-23.66941 0-42.850634-19.181223-42.850634-42.850633 0-23.657247 19.181223-42.850634 42.850634-42.850634a42.619535 42.619535 0 0 1 30.371283 12.47935 42.67062 42.67062 0 0 1 12.47935 30.371284z m366.912352 90.919241c23.632921 0.133794 42.692513 19.375833 42.595209 43.008754-0.097305 23.632921-19.290691 42.729003-42.923612 42.68035-23.632921-0.048652-42.765492-19.217713-42.765492-42.850633 0-11.408996 4.549003-22.343632 12.63747-30.383447a42.865229 42.865229 0 0 1 30.456425-12.455024z m425.964248-51.316158c-17.356757 0-32.986352-10.472437-39.603084-26.503415-6.616731-16.043141-2.906983-34.494578 9.402083-46.718502 12.309067-12.223925 30.772666-15.836368 46.779318-9.122332a42.850634 42.850634 0 0 1 26.272316 39.761204c-0.145957 23.559943-19.278528 42.583045-42.850633 42.583045z m0 0"  horiz-adv-x="1024" />

    
    <glyph glyph-name="gongneng" unicode="&#58888;" d="M465.92 424.96h15.36V567.04c0 79.36-64 142.08-142.08 142.08-79.36 0-142.08-64-142.08-142.08 0-79.36 64-142.08 142.08-142.08h126.72zM195.84 208.64c0-79.36 64-142.08 142.08-142.08 79.36 0 142.08 64 142.08 142.08V350.72h-140.8c-79.36 0-143.36-62.72-143.36-142.08zM839.68 208.64c0 79.36-64 142.08-142.08 142.08H554.24v-142.08c0-79.36 64-142.08 142.08-142.08 79.36 0 143.36 64 143.36 142.08zM839.68 567.04c0 79.36-64 142.08-142.08 142.08s-142.08-64-142.08-142.08v-142.08h142.08c78.08 0 142.08 64 142.08 142.08zM474.88 417.28H294.4c-106.24 0-193.28 87.04-193.28 193.28 0 38.4 11.52 75.52 33.28 107.52 5.12 7.68 11.52 16.64 19.2 25.6 5.12 5.12 12.8 5.12 17.92 0s5.12-12.8 0-17.92c-6.4-6.4-11.52-12.8-15.36-20.48-19.2-29.44-29.44-61.44-29.44-94.72 0-92.16 75.52-167.68 167.68-167.68h167.68V611.8399999999999C462.08 704 386.56 779.52 294.4 779.52c-7.68 0-12.8 5.12-12.8 12.8s5.12 12.8 12.8 12.8c106.24 0 193.28-87.04 193.28-193.28v-181.76c0-7.68-5.12-12.8-12.8-12.8zM207.36 756.48c-5.12 0-8.96 2.56-11.52 7.68-2.56 6.4 0 14.08 5.12 16.64l7.68 3.84c6.4 2.56 14.08 0 16.64-5.12 2.56-6.4 0-14.08-5.12-16.64l-7.68-3.84c-1.28-2.56-2.56-2.56-5.12-2.56zM294.4-29.440000000000055c-106.24 0-193.28 87.04-193.28 193.28S188.16 357.12 294.4 357.12h180.48c7.68 0 12.8-5.12 12.8-12.8v-180.48c0-106.24-87.04-193.28-193.28-193.28z m0 360.96c-92.16 0-167.68-75.52-167.68-167.68S202.24-3.840000000000032 294.4-3.840000000000032s167.68 75.52 167.68 167.68V331.52H294.4zM741.12 418.56H560.64c-7.68 0-12.8 5.12-12.8 12.8V611.8399999999999c0 106.24 87.04 193.28 193.28 193.28S934.4 718.08 934.4 611.8399999999999s-87.04-193.28-193.28-193.28z m-167.68 25.6h167.68c92.16 0 167.68 75.52 167.68 167.68C908.8 704 833.28 779.52 741.12 779.52S573.44 704 573.44 611.8399999999999v-167.68zM741.12-29.440000000000055c-106.24 0-193.28 87.04-193.28 193.28V344.32000000000005c0 7.68 5.12 12.8 12.8 12.8H742.4c106.24 0 193.28-87.04 193.28-193.28 0-19.2-2.56-37.12-7.68-55.04-2.56-6.4-8.96-10.24-16.64-8.96-6.4 2.56-10.24 8.96-8.96 16.64 5.12 15.36 7.68 30.72 7.68 47.36 0 92.16-75.52 167.68-167.68 167.68H573.44v-167.68c0-92.16 75.52-167.68 167.68-167.68 25.6 0 49.92 5.12 74.24 16.64 6.4 2.56 14.08 0 16.64-6.4 2.56-6.4 0-14.08-6.4-16.64-26.88-12.8-55.04-19.2-84.48-19.2z"  horiz-adv-x="1024" />

    
    <glyph glyph-name="remen2" unicode="&#58977;" d="M1024 384c0-281.6-227.555556-512-512-512S0 99.555556 0 384 227.555556 896 512 896s512-230.4 512-512zM409.6 361.244444v5.688889c-2.844444 11.377778-5.688889 25.6-5.688889 36.977778-2.844444 22.755556-2.844444 48.355556 0 71.111111 0 11.377778 2.844444 31.288889 5.688889 42.666667l8.533333 25.6c2.844444 5.688889 2.844444 11.377778 5.688889 17.066667 0 2.844444 0 2.844444 2.844445 5.688888 5.688889 14.222222 17.066667 34.133333 25.6 45.511112l8.533333 11.377777 2.844444 2.844445 2.844445 2.844444c11.377778 14.222222 25.6 25.6 39.822222 34.133334 8.533333 5.688889 17.066667 11.377778 28.444445 17.066666 8.533333 2.844444 17.066667 8.533333 28.444444 5.688889 0-5.688889 5.688889-11.377778 5.688889-17.066667 2.844444-5.688889 0-14.222222 0-22.755555-2.844444-11.377778-2.844444-34.133333-2.844445-45.511111V566.044444c2.844444-19.911111 5.688889-42.666667 11.377778-62.577777l8.533334-22.755556c0-2.844444 0-2.844444 2.844444-5.688889 2.844444-8.533333 8.533333-19.911111 14.222222-28.444444l2.844445-2.844445v5.688889c2.844444 28.444444 11.377778 51.2 28.444444 73.955556l2.844445 2.844444 5.688888 5.688889c8.533333 8.533333 19.911111 17.066667 28.444445 19.911111 8.533333 2.844444 17.066667-2.844444 19.911111-8.533333 5.688889-8.533333 2.844444-14.222222 2.844444-25.6v-5.688889c2.844444-17.066667 5.688889-22.755556 11.377778-39.822222 0-2.844444 0-2.844444 2.844445-5.688889l5.688889-14.222222c5.688889-11.377778 14.222222-22.755556 17.066666-34.133334 2.844444-5.688889 5.688889-14.222222 8.533334-19.911111l2.844444-5.688889c2.844444-8.533333 2.844444-14.222222 5.688889-22.755555 0-5.688889 2.844444-19.911111 2.844444-25.6v-56.888889c0-8.533333-2.844444-17.066667-2.844444-25.6l-8.533333-34.133333c0-2.844444-2.844444-5.688889-2.844445-11.377778-2.844444-2.844444-2.844444-5.688889-5.688889-8.533334-2.844444-5.688889-5.688889-11.377778-11.377778-19.911111 0-2.844444-2.844444-2.844444-2.844444-5.688889l-2.844444-5.688888c-2.844444-2.844444-2.844444-5.688889-5.688889-8.533334-2.844444-2.844444-5.688889-8.533333-8.533334-11.377778l-5.688889-5.688888c-5.688889-8.533333-19.911111-19.911111-31.288888-28.444445l-2.844445-2.844444-2.844444-2.844445-2.844445-2.844444-5.688889-2.844445c-2.844444 0-2.844444-2.844444-5.688889-2.844444l-8.533333-5.688889c-2.844444 0-2.844444-2.844444-5.688889-2.844444-8.533333-5.688889-19.911111-8.533333-31.288889-11.377778 2.844444 2.844444-36.977778-19.911111-139.377777-8.533334l-11.377778 2.844445c-2.844444 0-2.844444 0-5.688889 2.844444-2.844444 0-2.844444 0-5.688889 2.844445-2.844444 0-8.533333 2.844444-11.377778 2.844444-11.377778 2.844444-22.755556 8.533333-34.133333 17.066667l-25.6 17.066667c-5.688889 5.688889-14.222222 11.377778-19.911111 17.066666-8.533333 8.533333-11.377778 11.377778-17.066667 19.911111-5.688889 5.688889-11.377778 14.222222-14.222222 19.911111l-2.844445 5.688889c-8.533333 14.222222-19.911111 39.822222-22.755555 56.888889-2.844444 17.066667-5.688889 34.133333-8.533333 48.355556v28.444444c0 8.533333 2.844444 22.755556 2.844444 31.288889 2.844444 19.911111 11.377778 51.2 19.911111 68.266667 2.844444 5.688889 2.844444 11.377778 5.688889 14.222222 5.688889 8.533333 8.533333 19.911111 14.222222 28.444444 5.688889 11.377778 19.911111 11.377778 28.444445 2.844445 5.688889-5.688889 8.533333-19.911111 8.533333-25.6l8.533333-25.6c5.688889-14.222222 11.377778-25.6 19.911111-36.977778 2.844444-2.844444 17.066667-17.066667 22.755556-17.066667z"  horiz-adv-x="1024" />

    
    <glyph glyph-name="fanxiuchuli" unicode="&#58889;" d="M806.566 610.03c-73.41 75.155-171.159 118.595-274.982 121.2h-2.169v44.313c0 7.378-4.346 13.902-10.856 17.375-6.52 3.042-14.335 2.606-19.986-1.736l-101.65-72.977c-5.215-3.478-8.256-9.557-8.256-16.076 0-6.087 3.037-12.166 8.256-16.075l101.214-72.982c6.091-4.346 13.907-4.782 20.422-1.737 6.51 3.478 10.852 9.989 10.852 17.376v39.962h2.173c87.32-2.61 169.421-39.53 231.106-102.955 61.688-63.861 95.567-147.263 95.567-235.01 0-186.362-151.61-337.967-337.534-337.967-186.366 0-337.539 151.605-337.539 337.966 0 98.173 42.572 191.14 116.422 255.433 6.95 6.078 11.297 14.77 11.297 23.89a31.147 31.147 0 0 1-31.278 31.28c-8.256 0-16.508-3.479-22.154-9.125-86.884-76.019-136.403-185.925-136.403-301.478 0-220.676 179.406-400.523 399.655-400.523 220.244 0 399.65 179.41 399.65 400.523 0.009 104.692-40.394 203.737-113.807 279.324zM472.391 417.36s13.484 30.54 83.105 28.407l21.993 22.019s-53.956 23.437-100.154 14.91c0 0-43.335-0.698-100.856-78.135 0 0 4.246-38.365-35.524-35.515l-30.563-30.541L365.81 283.1l27.015 26.985s2.81 66.772 57.522 43.335l100.882-100.15-2.832-19.182 114.361-114.366s27.696-7.82 44.74 12.079c0 0 15.648 12.776 14.92 39.778L605.914 283.816l-19.183 2.134-113.637 114.348s-9.94 6.397-0.703 17.062z"  horiz-adv-x="1039" />

    
    <glyph glyph-name="fanhui" unicode="&#58971;" d="M736-64c-9 0-18.1 3.2-25 9.6L263 360.8c-13.8 12.8-13.8 33.6 0 46.4L711 822.4c13.8 12.8 36.2 12.8 50 0 13.8-12.8 13.8-33.6 0-46.4L338 384l423-392c13.8-12.8 13.8-33.6 0-46.4-6.9-6.4-16-9.6-25-9.6z"  horiz-adv-x="1024" />

    


  </font>
</defs>
</svg>
